HIERARCHY
ROOT hip
{
  OFFSET 0 0 0
  CHANNELS 6 Xposition Yposition Zposition Zrotation Yrotation Xrotation
  JOINT abdomen
  {
    OFFSET 0 20.6881 -0.73152
    CHANNELS 3 Zrotation Xrotation Yrotation
    JOINT chest
    {
      OFFSET 0 11.7043 -0.48768
      CHANNELS 3 Zrotation Xrotation Yrotation
      JOINT neck
      {
        OFFSET 0 22.1894 -2.19456
        CHANNELS 3 Zrotation Xrotation Yrotation
        JOINT head
        {
          OFFSET -0.24384 7.07133 1.2192
          CHANNELS 3 Zrotation Xrotation Yrotation
          JOINT leftEye
          {
            OFFSET 4.14528 8.04674 8.04672
            CHANNELS 3 Zrotation Xrotation Yrotation
            End Site
            {
              OFFSET 1 0 0
            }
          }
          JOINT rightEye
          {
            OFFSET -3.6576 8.04674 8.04672
            CHANNELS 3 Zrotation Xrotation Yrotation
            End Site
            {
              OFFSET 1 0 0
            }
          }
        }
      }
      JOINT rCollar
      {
        OFFSET -2.68224 19.2634 -4.8768
        CHANNELS 3 Zrotation Xrotation Yrotation
        JOINT rShldr
        {
          OFFSET -8.77824 -1.95073 1.46304
          CHANNELS 3 Zrotation Xrotation Yrotation
          JOINT rForeArm
          {
            OFFSET -28.1742 -1.7115 0.48768
            CHANNELS 3 Zrotation Xrotation Yrotation
            JOINT rHand
            {
              OFFSET -22.5879 0.773209 7.07136
              CHANNELS 3 Zrotation Xrotation Yrotation
              JOINT rThumb1
              {
                OFFSET -1.2192 -0.487915 3.41376
                CHANNELS 3 Zrotation Xrotation Yrotation
                JOINT rThumb2
                {
                  OFFSET -3.37035 -0.52449 3.41376
                  CHANNELS 3 Zrotation Xrotation Yrotation
                  End Site
                  {
                    OFFSET -1.78271 -1.18214 1.43049
                  }
                }
              }
              JOINT rIndex1
              {
                OFFSET -7.75947 0.938293 5.60832
                CHANNELS 3 Zrotation Xrotation Yrotation
                JOINT rIndex2
                {
                  OFFSET -2.54057 -0.884171 1.56538
                  CHANNELS 3 Zrotation Xrotation Yrotation
                  End Site
                  {
                    OFFSET -1.62519 -0.234802 1.16502
                  }
                }
              }
              JOINT rMid1
              {
                OFFSET -8.24714 1.18213 3.41376
                CHANNELS 3 Zrotation Xrotation Yrotation
                JOINT rMid2
                {
                  OFFSET -3.10165 -0.590103 1.0647
                  CHANNELS 3 Zrotation Xrotation Yrotation
                  End Site
                  {
                    OFFSET -2.48547 -0.328903 0.83742
                  }
                }
              }
              JOINT rRing1
              {
                OFFSET -8.82822 0.546677 1.51678
                CHANNELS 3 Zrotation Xrotation Yrotation
                JOINT rRing2
                {
                  OFFSET -2.60934 -0.819778 -0.0198488
                  CHANNELS 3 Zrotation Xrotation Yrotation
                  End Site
                  {
                    OFFSET -2.33842 -0.294052 0.168128
                  }
                }
              }
              JOINT rPinky1
              {
                OFFSET -8.27202 -0.0477905 -0.4584
                CHANNELS 3 Zrotation Xrotation Yrotation
                JOINT rPinky2
                {
                  OFFSET -1.82734 -0.647385 -0.700984
                  CHANNELS 3 Zrotation Xrotation Yrotation
                  End Site
                  {
                    OFFSET -1.69225 -0.51767 -0.607171
                  }
                }
              }
            }
          }
        }
      }
      JOINT lCollar
      {
        OFFSET 2.68224 19.2634 -4.8768
        CHANNELS 3 Zrotation Xrotation Yrotation
        JOINT lShldr
        {
          OFFSET 8.77824 -1.95073 1.46304
          CHANNELS 3 Zrotation Xrotation Yrotation
          JOINT lForeArm
          {
            OFFSET 28.1742 -1.7115 0.48768
            CHANNELS 3 Zrotation Xrotation Yrotation
            JOINT lHand
            {
              OFFSET 22.5879 0.773209 7.07136
              CHANNELS 3 Zrotation Xrotation Yrotation
              JOINT lThumb1
              {
                OFFSET 1.2192 -0.487915 3.41376
                CHANNELS 3 Zrotation Xrotation Yrotation
                JOINT lThumb2
                {
                  OFFSET 3.37035 -0.52449 3.41376
                  CHANNELS 3 Zrotation Xrotation Yrotation
                  End Site
                  {
                    OFFSET 1.78271 -1.18214 1.43049
                  }
                }
              }
              JOINT lIndex1
              {
                OFFSET 7.75947 0.938293 5.60832
                CHANNELS 3 Zrotation Xrotation Yrotation
                JOINT lIndex2
                {
                  OFFSET 2.54057 -0.884171 1.56538
                  CHANNELS 3 Zrotation Xrotation Yrotation
                  End Site
                  {
                    OFFSET 1.62519 -0.234802 1.16502
                  }
                }
              }
              JOINT lMid1
              {
                OFFSET 8.24714 1.18213 3.41376
                CHANNELS 3 Zrotation Xrotation Yrotation
                JOINT lMid2
                {
                  OFFSET 3.10165 -0.590103 1.0647
                  CHANNELS 3 Zrotation Xrotation Yrotation
                  End Site
                  {
                    OFFSET 2.48547 -0.328903 0.83742
                  }
                }
              }
              JOINT lRing1
              {
                OFFSET 8.82822 0.546677 1.51678
                CHANNELS 3 Zrotation Xrotation Yrotation
                JOINT lRing2
                {
                  OFFSET 2.60934 -0.819778 -0.0198488
                  CHANNELS 3 Zrotation Xrotation Yrotation
                  End Site
                  {
                    OFFSET 2.33842 -0.294052 0.168128
                  }
                }
              }
              JOINT lPinky1
              {
                OFFSET 8.27202 -0.0477905 -0.4584
                CHANNELS 3 Zrotation Xrotation Yrotation
                JOINT lPinky2
                {
                  OFFSET 1.82734 -0.647385 -0.700984
                  CHANNELS 3 Zrotation Xrotation Yrotation
                  End Site
                  {
                    OFFSET 1.69225 -0.51767 -0.607171
                  }
                }
              }
            }
          }
        }
      }
    }
  }
  JOINT rButtock
  {
    OFFSET -8.77824 4.35084 1.2192
    CHANNELS 3 Zrotation Xrotation Yrotation
    JOINT rThigh
    {
      OFFSET 0 -1.70687 -2.19456
      CHANNELS 3 Zrotation Xrotation Yrotation
      JOINT rShin
      {
        OFFSET 0 -36.8199 0.73152
        CHANNELS 3 Zrotation Xrotation Yrotation
        JOINT rFoot
        {
          OFFSET 0.73152 -45.1104 -5.12064
          CHANNELS 3 Zrotation Xrotation Yrotation
          End Site
          {
            OFFSET -1.1221 -3.69964 12.103
          }
        }
      }
    }
  }
  JOINT lButtock
  {
    OFFSET 8.77824 4.35084 1.2192
    CHANNELS 3 Zrotation Xrotation Yrotation
    JOINT lThigh
    {
      OFFSET 0 -1.70687 -2.19456
      CHANNELS 3 Zrotation Xrotation Yrotation
      JOINT lShin
      {
        OFFSET 0 -36.8199 0.73152
        CHANNELS 3 Zrotation Xrotation Yrotation
        JOINT lFoot
        {
          OFFSET -0.73152 -45.1104 -5.12064
          CHANNELS 3 Zrotation Xrotation Yrotation
          End Site
          {
            OFFSET 1.1221 -3.69964 12.103
          }
        }
      }
    }
  }
}
MOTION
Frames:	7
Frame Time:	0.00833333
5.11522 82.5638 -56.0015 10.6668 4.6608 9.8282 -14.6769 8.22298 -4.85819 6.60699 -5.92692 -1.2994 3.7405 -0.0501853 -0.382985 -5.42174 -11.1221 -2.33948 -0.0 0.0 0.0 -0.0 0.0 0.0 -4.07037e-13 -1.02746e-13 -2.71408e-13 66.7381 -19.2615 -26.5749 -5.73547 -1.92696 10.0133 -0.964571 26.7487 4.06112 2.25656e-09 1.65308e-09 9.57332e-10 3.90668e-09 2.85144e-09 1.60206e-09 2.25656e-09 1.65309e-09 9.57334e-10 7.73091 5.47488 0.417314 2.25655e-09 1.65309e-09 9.57339e-10 2.90554 0.965183 0.102902 2.25655e-09 1.65309e-09 9.57336e-10 10.2786 0.731801 0.0259123 2.25655e-09 1.65309e-09 9.57344e-10 2.22167 -0.733487 -0.20892 -4.07407e-13 -1.02749e-13 -2.71811e-13 -61.4287 27.5036 -26.1949 19.0212 -11.829 -36.3517 0.676398 -22.6937 3.36932 3.44376e-09 9.4341e-09 -1.07146e-09 5.96057e-09 1.63405e-08 -1.79242e-09 3.44376e-09 9.43411e-09 -1.07144e-09 -7.73091 5.47488 -0.417314 3.44376e-09 9.43411e-09 -1.07146e-09 -2.90554 0.965183 -0.102902 3.44375e-09 9.43411e-09 -1.07146e-09 -10.2786 0.731801 -0.0259123 3.44376e-09 9.43411e-09 -1.07147e-09 -2.22167 -0.733487 0.20892 -2.03217e-16 0.0 -3.88251e-19 -23.8604 -48.6986 -16.6037 -0.233635 33.2658 0.440975 -3.4275 -2.90409 -18.6712 2.03217e-16 0.0 3.88251e-19 -11.2602 6.39338 0.362662 1.77334e-05 9.75593 -0.277493 1.72439 -2.33232 13.8141
5.07959 82.6208 -54.3912 10.5397 5.1246 9.8424 -14.3741 8.04907 -5.27755 6.66386 -5.82764 -1.40953 3.74154 -0.0887987 -0.3621 -5.44314 -10.9502 -2.29422 -0.0 0.0 0.0 -0.0 0.0 0.0 -4.76401e-13 -2.5444e-14 -3.29585e-13 65.3491 -21.0398 -28.0079 -5.63547 -1.88369 9.83482 -1.08598 28.1994 4.32164 2.96633e-09 2.41991e-09 -3.72122e-10 5.10506e-09 4.14929e-09 -7.09726e-10 2.96633e-09 2.41991e-09 -3.72122e-10 7.73091 5.47488 0.417314 2.96633e-09 2.41991e-09 -3.72115e-10 2.90554 0.965183 0.102902 2.96633e-09 2.41991e-09 -3.72119e-10 10.2786 0.731801 0.0259123 2.96632e-09 2.41992e-09 -3.72109e-10 2.22167 -0.733487 -0.20892 -4.76753e-13 -2.54468e-14 -3.29983e-13 -60.461 27.4568 -27.1606 19.4044 -12.2806 -37.2529 0.688221 -22.8795 3.40006 4.39491e-09 1.2461e-08 -1.61988e-09 7.61525e-09 2.16079e-08 -2.72603e-09 4.39491e-09 1.2461e-08 -1.61987e-09 -7.73091 5.47488 -0.417314 4.39492e-09 1.2461e-08 -1.61988e-09 -2.90554 0.965183 -0.102902 4.39491e-09 1.2461e-08 -1.61988e-09 -10.2786 0.731801 -0.0259123 4.39492e-09 1.2461e-08 -1.61989e-09 -2.22167 -0.733487 0.20892 -2.03217e-16 0.0 -3.88251e-19 -23.1626 -48.3199 -15.3681 -0.199873 30.924 0.398585 -3.66072 -3.55737 -19.0755 2.03217e-16 0.0 3.88251e-19 -10.7729 7.94333 0.0336209 0.00130234 8.57628 -0.237771 1.36978 -1.1865 13.022
5.02596 82.6572 -52.7443 10.3454 5.5962 9.7912 -13.9474 7.92929 -5.64752 6.67677 -5.7264 -1.50779 3.73112 -0.173476 -0.357707 -5.48807 -10.738 -2.28162 -0.0 0.0 0.0 -0.0 0.0 0.0 -4.35274e-13 1.36814e-13 -2.92861e-13 63.9411 -22.7715 -29.4419 -5.54175 -1.84322 9.66797 -1.20878 29.5707 4.57403 3.13753e-09 2.79899e-09 -1.79116e-09 5.36844e-09 4.76598e-09 -3.16395e-09 3.13753e-09 2.799e-09 -1.79116e-09 7.73091 5.47488 0.417314 3.13752e-09 2.799e-09 -1.79115e-09 2.90554 0.965183 0.102902 3.13753e-09 2.799e-09 -1.79115e-09 10.2786 0.731801 0.0259123 3.13752e-09 2.799e-09 -1.79114e-09 2.22167 -0.733487 -0.20892 -4.35567e-13 1.36812e-13 -2.93237e-13 -59.6193 27.3452 -28.0347 19.7677 -12.7213 -38.121 0.690038 -22.9051 3.40438 4.32329e-09 1.30282e-08 -2.1952e-09 7.5049e-09 2.26432e-08 -3.72386e-09 4.32329e-09 1.30282e-08 -2.19519e-09 -7.73091 5.47488 -0.417314 4.3233e-09 1.30282e-08 -2.1952e-09 -2.90554 0.965183 -0.102902 4.32329e-09 1.30282e-08 -2.1952e-09 -10.2786 0.731801 -0.0259123 4.3233e-09 1.30282e-08 -2.19521e-09 -2.22167 -0.733487 0.20892 -2.03217e-16 0.0 -3.88251e-19 -22.4012 -47.8428 -14.253 -0.177227 29.1687 0.37343 -3.95052 -4.34173 -19.4377 2.03217e-16 0.0 3.88251e-19 -10.166 9.23188 -0.323671 0.00347199 8.01641 -0.210816 1.08249 -0.12504 12.3096
4.94889 82.6664 -51.0579 10.0721 6.0611 9.6599 -13.413 7.84648 -5.98075 6.6538 -5.62103 -1.59739 3.70992 -0.296431 -0.364974 -5.55101 -10.4868 -2.29135 -0.0 0.0 0.0 -0.0 0.0 0.0 -3.23839e-13 3.59005e-13 -1.97291e-13 62.5178 -24.4345 -30.882 -5.46016 -1.80847 9.52263 -1.3294 30.8575 4.81616 2.99199e-09 2.95759e-09 -3.36023e-09 5.07945e-09 4.99209e-09 -5.87004e-09 2.99199e-09 2.95759e-09 -3.36023e-09 7.73091 5.47488 0.417314 2.99199e-09 2.9576e-09 -3.36023e-09 2.90554 0.965183 0.102902 2.992e-09 2.9576e-09 -3.36022e-09 10.2786 0.731801 0.0259123 2.99199e-09 2.9576e-09 -3.36022e-09 2.22167 -0.733487 -0.20892 -3.2404e-13 3.59005e-13 -1.97635e-13 -58.8886 27.1755 -28.8211 20.1134 -13.1543 -38.9577 0.682592 -22.7897 3.38524 3.63158e-09 1.21364e-08 -2.82795e-09 6.32538e-09 2.11721e-08 -4.8318e-09 3.63158e-09 1.21364e-08 -2.82794e-09 -7.73091 5.47488 -0.417314 3.63158e-09 1.21364e-08 -2.82795e-09 -2.90554 0.965183 -0.102902 3.63158e-09 1.21364e-08 -2.82795e-09 -10.2786 0.731801 -0.0259123 3.63158e-09 1.21364e-08 -2.82797e-09 -2.22167 -0.733487 0.20892 -2.03217e-16 0.0 -3.88251e-19 -21.5731 -47.2499 -13.1699 -0.160043 27.8615 0.360912 -4.31844 -5.26909 -19.8404 2.03217e-16 0.0 3.88251e-19 -9.44648 10.329 -0.723942 0.00511348 7.90668 -0.191751 0.838343 0.90822 11.6319
4.85105 82.6459 -49.334 9.739 6.4913 9.4575 -12.8413 7.7796 -6.248 6.61361 -5.52609 -1.66816 3.68365 -0.407142 -0.377857 -5.64126 -10.241 -2.31263 -0.0 0.0 0.0 -0.0 0.0 0.0 -1.93246e-13 5.46011e-13 -9.3833e-14 61.1571 -25.8952 -32.2863 -5.39249 -1.77986 9.40209 -1.43878 31.9521 5.02772 2.63931e-09 2.88619e-09 -4.56096e-09 4.44114e-09 4.83091e-09 -7.93546e-09 2.63931e-09 2.88619e-09 -4.56096e-09 7.73091 5.47488 0.417314 2.63931e-09 2.88619e-09 -4.56095e-09 2.90554 0.965183 0.102902 2.63931e-09 2.88619e-09 -4.56095e-09 10.2786 0.731801 0.0259123 2.6393e-09 2.8862e-09 -4.56095e-09 2.22167 -0.733487 -0.20892 -1.93357e-13 5.46012e-13 -9.41478e-14 -58.3041 26.9841 -29.4678 20.4452 -13.5823 -39.7724 0.674069 -22.6574 3.36332 2.6932e-09 1.03489e-08 -3.23023e-09 4.71511e-09 1.81348e-08 -5.545e-09 2.6932e-09 1.03489e-08 -3.23022e-09 -7.73091 5.47488 -0.417314 2.69321e-09 1.03489e-08 -3.23023e-09 -2.90554 0.965183 -0.102902 2.6932e-09 1.03489e-08 -3.23024e-09 -10.2786 0.731801 -0.0259123 2.69321e-09 1.03489e-08 -3.23025e-09 -2.22167 -0.733487 0.20892 -2.03217e-16 0.0 -3.88251e-19 -20.7369 -46.5923 -12.2149 -0.14832 26.9899 0.354167 -4.63955 -6.11998 -20.0532 2.03217e-16 0.0 3.88251e-19 -8.68743 11.198 -1.11843 0.00716069 8.24067 -0.181016 0.612189 2.00311 10.9516
4.73315 82.5975 -47.5719 9.3581 6.8397 9.1909 -12.303 7.70772 -6.41999 6.57472 -5.45617 -1.70994 3.6581 -0.455089 -0.390312 -5.76837 -10.0448 -2.33471 -0.0 0.0 0.0 -0.0 0.0 0.0 -9.46481e-14 6.02714e-13 -3.34455e-14 59.9558 -27.0285 -33.5959 -5.34052 -1.75781 9.30968 -1.52466 32.747 5.18596 2.18904e-09 2.57528e-09 -4.87496e-09 3.65653e-09 4.28571e-09 -8.46764e-09 2.18905e-09 2.57528e-09 -4.87496e-09 7.73091 5.47488 0.417314 2.18904e-09 2.57528e-09 -4.87495e-09 2.90554 0.965183 0.102902 2.18905e-09 2.57528e-09 -4.87495e-09 10.2786 0.731801 0.0259123 2.18904e-09 2.57528e-09 -4.87494e-09 2.22167 -0.733487 -0.20892 -9.47006e-14 6.02717e-13 -3.37437e-14 -57.8983 26.8069 -29.9245 20.7665 -14.0074 -40.5747 0.672376 -22.632 3.3591 1.8816e-09 8.22923e-09 -3.11416e-09 3.31253e-09 1.44714e-08 -5.35862e-09 1.8816e-09 8.22924e-09 -3.11415e-09 -7.73091 5.47488 -0.417314 1.8816e-09 8.22923e-09 -3.11415e-09 -2.90554 0.965183 -0.102902 1.8816e-09 8.22923e-09 -3.11416e-09 -10.2786 0.731801 -0.0259123 1.88161e-09 8.22923e-09 -3.11417e-09 -2.22167 -0.733487 0.20892 -2.03217e-16 0.0 -3.88251e-19 -19.9391 -45.9248 -11.4743 -0.142938 26.5418 0.346848 -4.77292 -6.68075 -19.8397 2.03217e-16 0.0 3.88251e-19 -7.96622 11.8025 -1.45732 0.0109499 9.01195 -0.179141 0.386047 3.25084 10.2323
4.59675 82.5297 -45.7761 8.9499 7.0953 8.8826 -11.8239 7.62205 -6.48162 6.54501 -5.41399 -1.718 3.62847 -0.410966 -0.404036 -5.9455 -9.93615 -2.36109 -0.0 0.0 0.0 -0.0 0.0 0.0 -3.96452e-14 4.49693e-13 -4.38246e-14 59.0112 -27.7364 -34.773 -5.31249 -1.74568 9.25994 -1.56621 33.1065 5.25927 1.52769e-09 1.82843e-09 -3.76461e-09 2.54315e-09 3.03562e-09 -6.53582e-09 1.52769e-09 1.82843e-09 -3.76462e-09 7.73091 5.47488 0.417314 1.52769e-09 1.82843e-09 -3.76461e-09 2.90554 0.965183 0.102902 1.5277e-09 1.82843e-09 -3.76461e-09 10.2786 0.731801 0.0259123 1.52769e-09 1.82843e-09 -3.7646e-09 2.22167 -0.733487 -0.20892 -3.96869e-14 4.49696e-13 -4.41259e-14 -57.6655 26.6618 -30.1824 21.0853 -14.4417 -41.381 0.677892 -22.7155 3.37298 1.20219e-09 5.40335e-09 -2.13192e-09 2.11958e-09 9.50166e-09 -3.67044e-09 1.20219e-09 5.40336e-09 -2.13191e-09 -7.73091 5.47488 -0.417314 1.20219e-09 5.40335e-09 -2.13191e-09 -2.90554 0.965183 -0.102902 1.20219e-09 5.40335e-09 -2.13192e-09 -10.2786 0.731801 -0.0259123 1.2022e-09 5.40335e-09 -2.13193e-09 -2.22167 -0.733487 0.20892 -2.03217e-16 0.0 -3.88251e-19 -19.1866 -45.24 -11.0366 -0.144976 26.6342 0.338968 -4.63745 -6.90946 -18.9392 2.03217e-16 0.0 3.88251e-19 -7.30203 12.1212 -1.71893 0.0171505 10.3196 -0.189816 0.184312 4.5685 9.48342
